<?xml version="1.0" encoding="UTF-8"?>
<svg xmlns="http://www.w3.org/2000/svg" xmlns:xlink="http://www.w3.org/1999/xlink" width="76px" height="76px" viewBox="0 0 76 76" version="1.1">
<g id="surface1">
<path style=" stroke:none;fill-rule:evenodd;fill:rgb(2.745098%,37.254902%,89.411765%);fill-opacity:1;" d="M 76 38 C 76 58.988281 58.988281 76 38 76 C 17.011719 76 0 58.988281 0 38 C 0 17.011719 17.011719 0 38 0 C 58.988281 0 76 17.011719 76 38 Z M 76 38 "/>
<path style=" stroke:none;fill-rule:evenodd;fill:rgb(99.607843%,99.607843%,99.607843%);fill-opacity:1;" d="M 17.542969 61.328125 C 14.917969 60.492188 13.425781 57.75 13.425781 55.09375 L 13.425781 32.683594 C 13.425781 31.335938 15.472656 31.335938 15.472656 32.683594 L 15.472656 55.09375 C 15.472656 56.222656 15.824219 57.375 16.550781 58.253906 C 17.175781 59.007812 18.050781 59.519531 19.046875 59.519531 L 19.058594 59.519531 C 20.054688 59.519531 20.929688 59.007812 21.554688 58.253906 C 22.28125 57.375 22.632812 56.222656 22.632812 55.09375 L 22.632812 16.355469 C 22.632812 14.511719 24.132812 13.015625 25.976562 13.015625 L 56.949219 13.015625 C 58.792969 13.015625 60.289062 14.511719 60.289062 16.355469 L 60.289062 54.171875 C 60.289062 58.25 56.972656 61.5625 52.894531 61.5625 C 49.328125 61.5625 18.191406 61.882812 17.542969 61.328125 Z M 55.59375 30.65625 L 43.226562 30.65625 C 42.917969 30.65625 42.667969 30.410156 42.667969 30.101562 L 42.667969 21.601562 C 42.667969 21.292969 42.917969 21.042969 43.226562 21.042969 L 55.59375 21.042969 C 55.902344 21.042969 56.152344 21.292969 56.152344 21.601562 L 56.152344 30.101562 C 56.152344 30.410156 55.90625 30.65625 55.59375 30.65625 Z M 43.78125 29.542969 L 55.035156 29.542969 L 55.035156 22.160156 L 43.78125 22.160156 Z M 38.058594 22.339844 L 29.144531 22.339844 C 28.410156 22.339844 28.410156 21.226562 29.144531 21.226562 L 38.058594 21.226562 C 38.792969 21.226562 38.796875 22.339844 38.058594 22.339844 Z M 38.058594 26.410156 L 29.144531 26.410156 C 28.410156 26.410156 28.410156 25.292969 29.144531 25.292969 L 38.058594 25.292969 C 38.792969 25.292969 38.796875 26.410156 38.058594 26.410156 Z M 36.800781 30.480469 L 29.144531 30.480469 C 28.410156 30.480469 28.410156 29.363281 29.144531 29.363281 L 36.800781 29.363281 C 37.535156 29.363281 37.535156 30.480469 36.800781 30.480469 Z M 41.515625 44.699219 L 29.144531 44.699219 C 28.835938 44.699219 28.589844 44.445312 28.589844 44.140625 L 28.589844 35.640625 C 28.589844 35.332031 28.835938 35.082031 29.144531 35.082031 L 41.515625 35.082031 C 41.824219 35.082031 42.074219 35.332031 42.074219 35.640625 L 42.074219 44.140625 C 42.074219 44.445312 41.828125 44.699219 41.515625 44.699219 Z M 29.703125 43.582031 L 40.957031 43.582031 L 40.957031 36.199219 L 29.703125 36.199219 Z M 55.59375 44.519531 L 46.683594 44.519531 C 45.949219 44.519531 45.949219 43.402344 46.683594 43.402344 L 55.59375 43.402344 C 56.328125 43.402344 56.332031 44.519531 55.59375 44.519531 Z M 55.59375 40.449219 L 46.683594 40.449219 C 45.949219 40.449219 45.949219 39.335938 46.683594 39.335938 L 55.59375 39.335938 C 56.328125 39.335938 56.332031 40.449219 55.59375 40.449219 Z M 55.59375 36.378906 L 47.941406 36.378906 C 47.207031 36.378906 47.207031 35.261719 47.941406 35.261719 L 55.59375 35.261719 C 56.328125 35.261719 56.332031 36.378906 55.59375 36.378906 Z M 54.96875 49.789062 L 29.679688 49.789062 C 28.945312 49.789062 28.945312 48.671875 29.679688 48.671875 L 54.96875 48.671875 C 55.699219 48.671875 55.699219 49.789062 54.96875 49.789062 Z M 53.171875 54.925781 L 31.472656 54.925781 C 30.738281 54.925781 30.738281 53.808594 31.472656 53.808594 L 53.171875 53.808594 C 53.90625 53.808594 53.910156 54.925781 53.171875 54.925781 Z M 53.171875 54.925781 "/>
<path style=" stroke:none;fill-rule:evenodd;fill:rgb(99.607843%,99.607843%,99.607843%);fill-opacity:1;" d="M 19.425781 57.769531 C 18.863281 57.769531 18.402344 57.3125 18.402344 56.746094 L 18.402344 30.238281 C 18.402344 28.890625 20.449219 28.890625 20.449219 30.238281 L 20.449219 56.746094 C 20.449219 57.3125 19.992188 57.769531 19.425781 57.769531 Z M 19.425781 57.769531 "/>
</g>
</svg>
