<?xml version="1.0" encoding="UTF-8"?>
<svg xmlns="http://www.w3.org/2000/svg" xmlns:xlink="http://www.w3.org/1999/xlink" width="76px" height="76px" viewBox="0 0 76 76" version="1.1">
<g id="surface1">
<path style=" stroke:none;fill-rule:evenodd;fill:rgb(2.745098%,37.254902%,89.411765%);fill-opacity:1;" d="M 76 38 C 76 58.988281 58.988281 76 38 76 C 17.011719 76 0 58.988281 0 38 C 0 17.011719 17.011719 0 38 0 C 58.988281 0 76 17.011719 76 38 Z M 76 38 "/>
<path style=" stroke:none;fill-rule:evenodd;fill:rgb(100%,100%,100%);fill-opacity:1;" d="M 58.296875 50.25 L 17.703125 50.25 C 16.273438 50.25 15.109375 49.085938 15.109375 47.65625 L 15.109375 45.242188 L 60.890625 45.242188 L 60.890625 47.65625 C 60.890625 49.085938 59.726562 50.25 58.296875 50.25 Z M 38.625 47.925781 L 37.375 47.925781 C 37.015625 47.925781 36.75 47.65625 36.75 47.296875 C 36.75 46.941406 37.015625 46.671875 37.375 46.671875 L 38.625 46.671875 C 38.984375 46.671875 39.25 46.941406 39.25 47.296875 C 39.25 47.65625 38.984375 47.925781 38.625 47.925781 Z M 15.109375 43.992188 L 15.109375 20.296875 C 15.109375 18.867188 16.273438 17.703125 17.703125 17.703125 L 58.296875 17.703125 C 59.726562 17.703125 60.890625 18.867188 60.890625 20.296875 L 60.890625 43.992188 Z M 54.542969 41.128906 C 54.363281 41.128906 54.183594 41.039062 54.09375 40.949219 L 48.996094 35.855469 L 47.386719 37.554688 C 47.210938 37.730469 46.941406 37.730469 46.761719 37.730469 C 46.492188 37.640625 46.316406 37.464844 46.316406 37.195312 L 44.972656 29.148438 C 44.972656 28.96875 44.972656 28.789062 45.152344 28.613281 C 45.332031 28.433594 45.511719 28.433594 45.6875 28.433594 L 53.738281 29.773438 C 54.003906 29.773438 54.183594 29.953125 54.273438 30.222656 C 54.273438 30.398438 54.273438 30.667969 54.09375 30.847656 L 52.394531 32.457031 L 57.492188 37.554688 C 57.761719 37.820312 57.761719 38.179688 57.492188 38.445312 L 54.988281 40.949219 C 54.898438 41.039062 54.71875 41.128906 54.542969 41.128906 Z M 48.996094 34.335938 C 49.175781 34.335938 49.355469 34.421875 49.445312 34.511719 L 54.542969 39.609375 L 56.152344 38 L 51.054688 32.902344 C 50.964844 32.8125 50.875 32.636719 50.875 32.457031 C 50.875 32.277344 50.964844 32.097656 51.054688 32.007812 L 52.304688 30.847656 L 46.40625 29.863281 L 47.386719 35.765625 L 48.550781 34.511719 C 48.640625 34.421875 48.820312 34.335938 48.996094 34.335938 Z M 23.871094 25.394531 L 19.582031 25.394531 C 19.222656 25.394531 18.957031 25.125 18.957031 24.765625 L 18.957031 20.476562 C 18.957031 20.117188 19.222656 19.847656 19.582031 19.847656 L 23.871094 19.847656 C 24.230469 19.847656 24.5 20.117188 24.5 20.476562 L 24.5 24.765625 C 24.5 25.125 24.230469 25.394531 23.871094 25.394531 Z M 20.207031 24.140625 L 23.246094 24.140625 L 23.246094 21.101562 L 20.207031 21.101562 Z M 23.871094 33.351562 L 19.582031 33.351562 C 19.222656 33.351562 18.957031 33.082031 18.957031 32.726562 L 18.957031 28.433594 C 18.957031 28.074219 19.222656 27.808594 19.582031 27.808594 L 23.871094 27.808594 C 24.230469 27.808594 24.5 28.074219 24.5 28.433594 L 24.5 32.726562 C 24.5 33.082031 24.230469 33.351562 23.871094 33.351562 Z M 20.207031 32.097656 L 23.246094 32.097656 L 23.246094 29.058594 L 20.207031 29.058594 Z M 23.871094 41.308594 L 19.582031 41.308594 C 19.222656 41.308594 18.957031 41.039062 18.957031 40.683594 L 18.957031 36.390625 C 18.957031 36.03125 19.222656 35.765625 19.582031 35.765625 L 23.871094 35.765625 C 24.230469 35.765625 24.5 36.03125 24.5 36.390625 L 24.5 40.683594 C 24.5 41.039062 24.230469 41.308594 23.871094 41.308594 Z M 20.207031 40.054688 L 23.246094 40.054688 L 23.246094 37.015625 L 20.207031 37.015625 Z M 34.335938 21.101562 L 27.359375 21.101562 C 27.003906 21.101562 26.734375 20.832031 26.734375 20.476562 C 26.734375 20.117188 27.003906 19.847656 27.359375 19.847656 L 34.335938 19.847656 C 34.691406 19.847656 34.960938 20.117188 34.960938 20.476562 C 34.960938 20.832031 34.691406 21.101562 34.335938 21.101562 Z M 41.308594 25.394531 L 27.359375 25.394531 C 27.003906 25.394531 26.734375 25.125 26.734375 24.765625 C 26.734375 24.410156 27.003906 24.140625 27.359375 24.140625 L 41.308594 24.140625 C 41.664062 24.140625 41.933594 24.410156 41.933594 24.765625 C 41.933594 25.125 41.664062 25.394531 41.308594 25.394531 Z M 34.335938 29.058594 L 27.359375 29.058594 C 27.003906 29.058594 26.734375 28.789062 26.734375 28.433594 C 26.734375 28.074219 27.003906 27.808594 27.359375 27.808594 L 34.335938 27.808594 C 34.691406 27.808594 34.960938 28.074219 34.960938 28.433594 C 34.960938 28.789062 34.691406 29.058594 34.335938 29.058594 Z M 41.308594 33.351562 L 27.359375 33.351562 C 27.003906 33.351562 26.734375 33.082031 26.734375 32.726562 C 26.734375 32.367188 27.003906 32.097656 27.359375 32.097656 L 41.308594 32.097656 C 41.664062 32.097656 41.933594 32.367188 41.933594 32.726562 C 41.933594 33.082031 41.664062 33.351562 41.308594 33.351562 Z M 34.335938 37.015625 L 27.359375 37.015625 C 27.003906 37.015625 26.734375 36.75 26.734375 36.390625 C 26.734375 36.03125 27.003906 35.765625 27.359375 35.765625 L 34.335938 35.765625 C 34.691406 35.765625 34.960938 36.03125 34.960938 36.390625 C 34.960938 36.75 34.691406 37.015625 34.335938 37.015625 Z M 41.308594 41.308594 L 27.359375 41.308594 C 27.003906 41.308594 26.734375 41.039062 26.734375 40.683594 C 26.734375 40.324219 27.003906 40.054688 27.359375 40.054688 L 41.308594 40.054688 C 41.664062 40.054688 41.933594 40.324219 41.933594 40.683594 C 41.933594 41.039062 41.664062 41.308594 41.308594 41.308594 Z M 41.308594 41.308594 "/>
<path style=" stroke:none;fill-rule:evenodd;fill:rgb(100%,100%,100%);fill-opacity:1;" d="M 43.1875 58.296875 L 32.8125 58.296875 C 32.636719 58.296875 32.457031 58.207031 32.277344 58.027344 C 32.1875 57.9375 32.1875 57.671875 32.1875 57.492188 L 33.707031 51.5 L 42.292969 51.5 L 43.8125 57.492188 C 43.8125 57.671875 43.8125 57.9375 43.632812 58.027344 C 43.542969 58.207031 43.363281 58.296875 43.1875 58.296875 Z M 43.1875 58.296875 "/>
<path style=" stroke:none;fill-rule:evenodd;fill:rgb(100%,100%,100%);fill-opacity:1;" d="M 47.925781 58.296875 L 28.074219 58.296875 C 27.71875 58.296875 27.449219 58.027344 27.449219 57.671875 C 27.449219 57.3125 27.71875 57.042969 28.074219 57.042969 L 47.925781 57.042969 C 48.28125 57.042969 48.550781 57.3125 48.550781 57.671875 C 48.550781 58.027344 48.28125 58.296875 47.925781 58.296875 Z M 47.925781 58.296875 "/>
</g>
</svg>
