<?xml version="1.0" encoding="UTF-8"?>
<svg xmlns="http://www.w3.org/2000/svg" xmlns:xlink="http://www.w3.org/1999/xlink" width="76px" height="76px" viewBox="0 0 76 76" version="1.1">
<g id="surface1">
<path style=" stroke:none;fill-rule:nonzero;fill:rgb(2.745098%,37.254902%,89.411765%);fill-opacity:1;" d="M 76 38 C 76 58.988281 58.988281 76 38 76 C 17.011719 76 0 58.988281 0 38 C 0 17.011719 17.011719 0 38 0 C 58.988281 0 76 17.011719 76 38 Z M 76 38 "/>
<path style=" stroke:none;fill-rule:nonzero;fill:rgb(94.509804%,94.901961%,94.901961%);fill-opacity:1;" d="M 38 13.867188 C 24.675781 13.867188 13.835938 24.695312 13.835938 38 C 13.835938 51.308594 24.675781 62.132812 38 62.132812 C 51.324219 62.132812 62.164062 51.308594 62.164062 38 C 62.164062 24.695312 51.324219 13.867188 38 13.867188 Z M 53.898438 25.257812 C 56.65625 28.671875 58.332031 32.988281 58.410156 37.6875 C 57.492188 37.5 53.605469 36.777344 48.964844 36.777344 C 47.46875 36.777344 45.890625 36.851562 44.3125 37.046875 C 44.179688 36.722656 44.042969 36.398438 43.902344 36.074219 C 43.496094 35.109375 43.050781 34.152344 42.59375 33.210938 C 49.738281 30.265625 53.183594 26.183594 53.898438 25.257812 Z M 38 17.644531 C 43.148438 17.644531 47.855469 19.558594 51.449219 22.707031 C 50.878906 23.484375 47.792969 27.34375 40.90625 29.945312 C 37.71875 24.117188 34.226562 19.289062 33.398438 18.171875 C 34.878906 17.828125 36.417969 17.644531 38 17.644531 Z M 29.230469 19.625 C 29.933594 20.59375 33.429688 25.46875 36.699219 31.25 C 27.921875 33.558594 20.128906 33.710938 18.25 33.710938 L 18.046875 33.710938 C 19.398438 27.480469 23.609375 22.304688 29.230469 19.625 Z M 17.585938 38.03125 C 17.585938 37.863281 17.585938 37.695312 17.59375 37.527344 C 17.714844 37.53125 17.894531 37.53125 18.128906 37.53125 C 20.664062 37.53125 29.457031 37.320312 38.519531 34.632812 C 39.066406 35.707031 39.59375 36.800781 40.078125 37.890625 C 39.851562 37.957031 39.625 38.023438 39.398438 38.09375 C 29.195312 41.390625 23.589844 50.113281 22.726562 51.539062 C 19.527344 47.9375 17.585938 43.210938 17.585938 38.03125 Z M 38 58.417969 C 33.316406 58.417969 28.996094 56.832031 25.546875 54.175781 C 26.132812 53.03125 30.363281 45.410156 41.546875 41.519531 C 41.554688 41.515625 41.558594 41.511719 41.570312 41.511719 C 44.371094 48.808594 45.558594 54.9375 45.886719 56.835938 C 43.460938 57.855469 40.792969 58.417969 38 58.417969 Z M 49.5625 54.824219 C 49.289062 53.253906 48.1875 47.511719 45.648438 40.507812 C 47.074219 40.289062 48.457031 40.199219 49.757812 40.199219 C 54.023438 40.199219 57.363281 41.136719 58.136719 41.371094 C 57.214844 46.933594 54.03125 51.746094 49.5625 54.824219 Z M 49.5625 54.824219 "/>
</g>
</svg>
